<svg xmlns="http://www.w3.org/2000/svg" xmlns:xlink="http://www.w3.org/1999/xlink" width="276" zoomAndPan="magnify" viewBox="0 0 206.87999 99.749996" height="133" preserveAspectRatio="xMidYMid meet" version="1.0"><defs><g/><clipPath id="c40d1b513e"><path d="M 0.199219 0 L 70.523438 0 L 70.523438 82 L 0.199219 82 Z M 0.199219 0 " clip-rule="nonzero"/></clipPath></defs><g clip-path="url(#c40d1b513e)"><path fill="#fcc509" d="M 52.277344 27.378906 L 47.625 27.378906 L 50.390625 24.175781 C 51.027344 24.328125 51.683594 24.410156 52.371094 24.410156 C 56.992188 24.410156 60.769531 20.65625 60.796875 16.03125 C 60.828125 11.378906 57.0625 7.570312 52.371094 7.550781 C 47.746094 7.550781 43.960938 11.304688 43.941406 15.929688 C 43.929688 17.121094 44.171875 18.300781 44.648438 19.382812 L 37.84375 27.378906 L 34.863281 27.378906 L 26.363281 16.867188 C 27.433594 15.140625 28.019531 13.144531 28.039062 11.09375 C 28.0625 8.148438 26.929688 5.371094 24.859375 3.28125 C 22.792969 1.179688 20.035156 0.0195312 17.015625 0 C 10.980469 0 6.035156 4.917969 5.992188 10.964844 C 5.972656 13.910156 7.101562 16.6875 9.171875 18.785156 C 11.242188 20.886719 14.007812 22.046875 17.015625 22.066406 C 17.804688 22.066406 18.589844 21.988281 19.347656 21.824219 L 23.820312 27.398438 L 18.117188 27.398438 C 10.050781 27.378906 0.21875 29.808594 0.21875 46.476562 L 0.21875 64.09375 C 0.21875 73.945312 8.273438 82 18.128906 82 L 52.277344 82 C 62.121094 82 70.1875 73.945312 70.1875 64.09375 L 70.1875 46.476562 C 70.1875 31.667969 60.34375 27.378906 52.277344 27.378906 Z M 54.074219 71.652344 L 16.332031 71.652344 C 13.554688 71.652344 11.210938 69.3125 11.210938 66.535156 L 11.230469 46.476562 L 11.230469 43.417969 C 11.332031 40.722656 13.625 38.480469 16.332031 38.480469 L 54.074219 38.480469 C 56.851562 38.480469 59.195312 40.824219 59.195312 43.601562 L 59.171875 63.667969 L 59.195312 63.667969 L 59.195312 66.535156 C 59.195312 69.3125 56.851562 71.652344 54.074219 71.652344 Z M 54.074219 71.652344 " fill-opacity="1" fill-rule="nonzero"/></g><path fill="#ffffff" d="M 27.585938 61.003906 C 27.566406 57.753906 27.546875 52.421875 27.527344 49.171875 C 27.503906 45.921875 29.9375 44.578125 32.722656 46.183594 C 35.5 47.800781 40.144531 50.433594 42.921875 52.050781 C 45.695312 53.664062 45.757812 56.320312 42.992188 57.964844 C 40.226562 59.609375 35.550781 62.296875 32.785156 63.929688 C 30.027344 65.578125 27.597656 64.253906 27.585938 61.003906 Z M 27.585938 61.003906 " fill-opacity="1" fill-rule="nonzero"/><g fill="#fcc509" fill-opacity="1"><g transform="translate(73.641246, 69.449128)"><g><path d="M 25.90625 0 L 15.703125 -12.703125 L 13.71875 -12.703125 L 13.71875 0 L 4.375 0 L 4.375 -37.390625 L 18.046875 -37.390625 C 21.003906 -37.390625 23.585938 -36.867188 25.796875 -35.828125 C 28.003906 -34.796875 29.710938 -33.335938 30.921875 -31.453125 C 32.128906 -29.566406 32.734375 -27.394531 32.734375 -24.9375 C 32.734375 -22.476562 32.128906 -20.320312 30.921875 -18.46875 C 29.710938 -16.625 27.984375 -15.203125 25.734375 -14.203125 L 37.21875 0 Z M 13.71875 -29.53125 L 13.71875 -20.40625 L 17.625 -20.40625 C 19.40625 -20.40625 20.785156 -20.832031 21.765625 -21.6875 C 22.742188 -22.539062 23.234375 -23.625 23.234375 -24.9375 C 23.234375 -26.289062 22.742188 -27.394531 21.765625 -28.25 C 20.785156 -29.101562 19.40625 -29.53125 17.625 -29.53125 Z M 13.71875 -29.53125 "/></g></g></g><g fill="#ffffff" fill-opacity="1"><g transform="translate(104.293241, 69.449128)"><g><path d="M 31.25 -37.390625 L 29.6875 -29.21875 L 16.65625 -29.21875 L 15.21875 -21.734375 L 27.765625 -21.734375 L 26.28125 -13.9375 L 13.71875 -13.9375 L 11.0625 0 L 1.703125 0 L 8.859375 -37.390625 Z M 31.25 -37.390625 "/></g></g></g><g fill="#ffffff" fill-opacity="1"><g transform="translate(131.418646, 69.449128)"><g><path d="M 9.9375 0 L 1.015625 0 L 8.390625 -38.453125 L 17.296875 -38.453125 Z M 9.9375 0 "/></g></g></g><g fill="#ffffff" fill-opacity="1"><g transform="translate(145.621898, 69.449128)"><g><path d="M 9.609375 0 L 0.6875 0 L 6.09375 -27.765625 L 14.953125 -27.765625 Z M 15.921875 -32.046875 L 6.6875 -32.046875 L 8.078125 -39.203125 L 17.3125 -39.203125 Z M 15.921875 -32.046875 "/></g></g></g><g fill="#ffffff" fill-opacity="1"><g transform="translate(159.237776, 69.449128)"><g><path d="M 23.5 -27.765625 L 33.859375 -27.765625 L 22.15625 -14.421875 L 29.15625 0 L 20.078125 0 L 16.125 -9.1875 L 8.546875 0 L -1.875 0 L 10.6875 -14.265625 L 4.21875 -27.765625 L 13.03125 -27.765625 L 16.609375 -19.171875 Z M 23.5 -27.765625 "/></g></g></g></svg>